<svg width="742" height="742" xmlns="http://www.w3.org/2000/svg">
 <!-- Created with Method Draw - http://github.com/duopixel/Method-Draw/ -->

 <g>
  <title>background</title>
  <rect fill="#fff" id="canvas_background" height="744" width="744" y="-1" x="-1"/>
  <g display="none" overflow="visible" y="0" x="0" height="100%" width="100%" id="canvasGrid">
   <rect fill="url(#gridpattern)" stroke-width="0" y="1" x="1" height="400" width="580"/>
  </g>
 </g>
 <g>
  <title>Layer 1</title>
  <path id="svg_4" fill="none" d="m1,1l740.740684,0l0,740.740684l-740.740684,0l0,-740.740684z"/>
  <path fill="#00a335" id="svg_5" d="m371.370342,62.72839c-170.370357,0 -308.641952,138.271594 -308.641952,308.641952s138.271594,308.641952 308.641952,308.641952s308.641952,-138.271594 308.641952,-308.641952s-138.271594,-308.641952 -308.641952,-308.641952zm-83.641969,441.049349l-110.802461,-110.802461c-12.037036,-12.037036 -12.037036,-31.481479 0,-43.518515c12.037036,-12.037036 31.481479,-12.037036 43.518515,0l89.197524,88.888882l212.345663,-212.345663c12.037036,-12.037036 31.481479,-12.037036 43.518515,0c12.037036,12.037036 12.037036,31.481479 0,43.518515l-234.259241,234.259241c-11.728394,12.037036 -31.481479,12.037036 -43.518515,0z"/>
  <g id="svg_6"/>
 </g>
</svg>